<?xml version="1.0" standalone="no"?>
<!DOCTYPE svg PUBLIC "-//W3C//DTD SVG 20010904//EN"
 "http://www.w3.org/TR/2001/REC-SVG-20010904/DTD/svg10.dtd">
<svg version="1.0" xmlns="http://www.w3.org/2000/svg"
 width="309.000000pt" height="309.000000pt" viewBox="0 0 309.000000 309.000000"
 preserveAspectRatio="xMidYMid meet">
<metadata>
Created by potrace 1.14, written by Peter Selinger 2001-2017
</metadata>
<g transform="translate(0.000000,309.000000) scale(0.100000,-0.100000)"
fill="#000000" stroke="none">
<path d="M1620 2114 c-140 -27 -287 -120 -330 -210 -45 -91 -23 -194 41 -194
29 0 30 1 15 22 -22 31 -20 56 10 116 96 192 386 262 839 203 202 -27 196 -26
162 -39 -166 -69 -375 -213 -636 -440 -68 -59 -77 -64 -110 -58 -20 3 -106 10
-191 17 -460 33 -853 -93 -1039 -334 -49 -65 -90 -157 -91 -205 0 -78 62 -150
152 -177 28 -8 88 -15 133 -15 251 0 433 101 893 497 l193 165 62 -7 c34 -3
65 -9 70 -12 5 -3 -45 -60 -110 -127 -302 -308 -361 -453 -183 -450 70 1 145
34 231 100 111 85 163 144 129 144 -6 0 -50 -32 -98 -71 -93 -75 -201 -135
-227 -126 -52 20 30 142 238 352 l152 154 92 -17 c70 -12 96 -13 104 -5 11 11
-25 25 -126 48 -30 7 -30 7 119 152 145 140 288 268 409 366 53 42 64 47 111
47 34 0 67 8 96 23 38 18 46 27 48 55 4 38 -16 43 -54 13 -61 -48 -383 -54
-574 -10 -77 17 -134 22 -300 24 -113 2 -216 1 -230 -1z m835 -142 c-134 -71
-237 -152 -482 -373 -72 -65 -136 -119 -142 -119 -27 0 -111 23 -111 30 0 11
198 176 333 276 192 143 349 224 437 224 34 -1 33 -2 -35 -38z m-947 -489 c45
-3 82 -10 82 -14 0 -10 -214 -193 -344 -295 -264 -207 -447 -288 -651 -288
-74 0 -99 4 -137 23 -124 60 -117 198 19 334 90 90 273 175 456 211 145 29
408 42 575 29z"/>
</g>
</svg>
